#N canvas 2495 43 1097 872 12;
#X obj 216 58 hsl 170 20 0 1 0 0 empty empty empty -2 -10 0 12 #fcfcfc #000000 #000000 0 1;
#X obj 14 719 netsend -u -b;
#X obj 82 166 oscformat synthedge inputs;
#X obj 216 83 pack f 1 0.7;
#X obj 567 52 netreceive -u -b 5006;
#X obj 567 77 oscparse;
#X obj 567 102 print;
#X obj 266 185 tgl 20 0 empty empty empty 0 -10 0 12 #fcfcfc #000000 #000000 0 1;
#X obj 266 209 oscformat synthedge record_inputs;
#X obj 508 230 bng 20 250 50 0 empty empty empty 0 -10 0 12 #fcfcfc #000000 #000000;
#X obj 508 255 oscformat synthedge save_inputs;
#X obj 537 151 bng 20 250 50 0 empty empty empty 0 -10 0 12 #fcfcfc #000000 #000000;
#X obj 537 176 oscformat synthedge load_inputs;
#X obj 537 201 s oscout;
#X obj 266 234 s oscout;
#X obj 508 280 s oscout;
#X obj 82 191 s oscout;
#X obj 57 665 r oscout;
#X obj 283 353 bng 20 250 50 0 empty empty empty 0 -10 0 12 #fcfcfc #000000 #000000;
#X obj 283 403 s oscout;
#X obj 283 378 oscformat synthedge train;
#X obj 525 329 bng 20 250 50 0 empty empty empty 0 -10 0 12 #fcfcfc #000000 #000000;
#X obj 525 379 s oscout;
#X obj 525 354 oscformat synthedge reset;
#X obj 754 361 s oscout;
#X obj 754 336 oscformat synthedge label;
#X floatatom 756 298 5 0 0 0 - - - 0;
#X obj 137 275 tgl 20 0 empty empty empty 0 -10 0 12 #fcfcfc #000000 #000000 0 1;
#X obj 137 324 s oscout;
#X obj 137 299 oscformat synthedge run;
#X msg 16 566 disconnect \, connect localhost 5003;
#X connect 0 0 3 0;
#X connect 2 0 16 0;
#X connect 3 0 2 0;
#X connect 4 0 5 0;
#X connect 5 0 6 0;
#X connect 7 0 8 0;
#X connect 8 0 14 0;
#X connect 9 0 10 0;
#X connect 10 0 15 0;
#X connect 11 0 12 0;
#X connect 12 0 13 0;
#X connect 17 0 1 0;
#X connect 18 0 20 0;
#X connect 20 0 19 0;
#X connect 21 0 23 0;
#X connect 23 0 22 0;
#X connect 25 0 24 0;
#X connect 26 0 25 0;
#X connect 27 0 29 0;
#X connect 29 0 28 0;
#X connect 30 0 1 0;
